<svg xmlns="http://www.w3.org/2000/svg" viewBox="0 0 400 450" width="400" height="450">
  <path d="M118,20 L158,20 L158,62 L290,70 L380,110 L300,180 L310,260 L325,430 L20,430 L20,180 L25,170 L25,62 L118,62 Z" 
        fill="#002B5C" stroke="#FFFFFF" stroke-width="2"/>

  <g transform="translate(280, 290) scale(1.5)">
    <path d="M0,-5 C-3,-8 -8,-8 -10,-5 C-12,-2 -12,2 -8,6 L0,14 L8,6 C12,2 12,-2 10,-5 C8,-8 3,-8 0,-5 Z" 
          fill="#DC2626" stroke="#FFFFFF" stroke-width="1"/>
  </g>
</svg>
